# xmcd
#
# Track frame offsets:
#	183
#	10883
#	22190
#	34758
#	45830
#	58483
#	72883
#	85858
#	97458
#	109870
#	118353
#	125795
#	136633
#	149058
#	162083
#	173383
#	186458
#	193070
#
# Disc length: 2755 seconds
#
# Revision: 1
# Processed by: cddbd v1.5.1PL2 Copyright (c) Steve Scherf et al.
# Submitted via: EasyCDDAExtractor 6.0.0.1
#
DISCID=0e0ac112
DTITLE=The Oak Ridge Boys - Country Music CM025
DYEAR=1999
DGENRE=Country
TTITLE0=Close To The Master
TTITLE1=An Empty Mansion
TTITLE2=In The Shelter Of His Arms
TTITLE3=Walk With Me
TTITLE4=You'll Never Walk Alone
TTITLE5=I Am A Pilgrim
TTITLE6=There's A Light Guiding Me
TTITLE7=Just A Closer Walk With Thee
TTITLE8=Time Has Made Change In Me
TTITLE9=Somebody Loves Me
TTITLE10=I Know
TTITLE11=Wonderful Saviour
TTITLE12=Without God
TTITLE13=The Old Country Church
TTITLE14=I'll Wake Up On The Other Side
TTITLE15=Dear Jesus Abide With Me
TTITLE16=The Christian Way
TTITLE17=Hide Thou Me
EXTD=
EXTT0=
EXTT1=
EXTT2=
EXTT3=
EXTT4=
EXTT5=
EXTT6=
EXTT7=
EXTT8=
EXTT9=
EXTT10=
EXTT11=
EXTT12=
EXTT13=
EXTT14=
EXTT15=
EXTT16=
EXTT17=
PLAYORDER=
